<svg xmlns="http://www.w3.org/2000/svg" width="800" height="800">
	
	<rect x="640" y="440" width="40" height="40" fill="#000000" />
	
	<rect x="640" y="400" width="40" height="40" fill="#000000" />
	
	<rect x="640" y="360" width="40" height="40" fill="#000000" />
	
	<rect x="640" y="320" width="40" height="40" fill="#000000" />
	
	<rect x="640" y="280" width="40" height="40" fill="#000000" />
	
	<rect x="600" y="480" width="40" height="40" fill="#000000" />
	
	<rect x="560" y="480" width="40" height="40" fill="#000000" />
	
	<rect x="520" y="480" width="40" height="40" fill="#000000" />
	
	<rect x="600" y="240" width="40" height="40" fill="#000000" />
	
	<rect x="560" y="240" width="40" height="40" fill="#000000" />
	
	<rect x="520" y="240" width="40" height="40" fill="#000000" />
	
	<rect x="480" y="240" width="40" height="40" fill="#000000" />
	
	<rect x="440" y="240" width="40" height="40" fill="#000000" />
	
	<rect x="400" y="240" width="40" height="40" fill="#000000" />
	
	<rect x="360" y="200" width="40" height="40" fill="#000000" />
	
	<rect x="320" y="200" width="40" height="40" fill="#000000" />
	
	<rect x="280" y="240" width="40" height="40" fill="#000000" />
	
	<rect x="280" y="280" width="40" height="40" fill="#000000" />
	
	<rect x="320" y="320" width="40" height="40" fill="#000000" />
	
	<rect x="320" y="360" width="40" height="40" fill="#000000" />
	
	<rect x="280" y="360" width="40" height="40" fill="#000000" />
	
	<rect x="240" y="360" width="40" height="40" fill="#000000" />
	
	<rect x="200" y="400" width="40" height="40" fill="#000000" />
	
	<rect x="160" y="440" width="40" height="40" fill="#000000" />
	
	<rect x="160" y="480" width="40" height="40" fill="#000000" />
	
	<rect x="160" y="520" width="40" height="40" fill="#000000" />
	
	<rect x="160" y="560" width="40" height="40" fill="#000000" />
	
	<rect x="200" y="600" width="40" height="40" fill="#000000" />
	
	<rect x="480" y="520" width="40" height="40" fill="#000000" />
	
	<rect x="480" y="560" width="40" height="40" fill="#000000" />
	
	<rect x="480" y="600" width="40" height="40" fill="#000000" />
	
	<rect x="320" y="600" width="40" height="40" fill="#000000" />
	
	<rect x="360" y="600" width="40" height="40" fill="#000000" />
	
	<rect x="440" y="320" width="40" height="40" fill="#000000" />
	
	<rect x="480" y="320" width="40" height="40" fill="#000000" />
	
	<rect x="320" y="280" width="40" height="40" fill="#714e2d" />
	
	<rect x="360" y="280" width="40" height="40" fill="#714e2d" />
	
	<rect x="360" y="320" width="40" height="40" fill="#714e2d" />
	
	<rect x="560" y="320" width="40" height="40" fill="#714e2d" />
	
	<rect x="560" y="280" width="40" height="40" fill="#714e2d" />
	
	<rect x="600" y="280" width="40" height="40" fill="#714e2d" />
	
	<rect x="600" y="320" width="40" height="40" fill="#714e2d" />
	
	<rect x="600" y="360" width="40" height="40" fill="#714e2d" />
	
	<rect x="400" y="600" width="40" height="40" fill="#714e2d" />
	
	<rect x="280" y="560" width="40" height="40" fill="#714e2d" />
	
	<rect x="320" y="560" width="40" height="40" fill="#714e2d" />
	
	<rect x="320" y="520" width="40" height="40" fill="#714e2d" />
	
	<rect x="320" y="480" width="40" height="40" fill="#714e2d" />
	
	<rect x="280" y="440" width="40" height="40" fill="#714e2d" />
	
	<rect x="440" y="600" width="40" height="40" fill="#a77e58" />
	
	<rect x="440" y="560" width="40" height="40" fill="#a77e58" />
	
	<rect x="400" y="560" width="40" height="40" fill="#a77e58" />
	
	<rect x="360" y="560" width="40" height="40" fill="#a77e58" />
	
	<rect x="360" y="520" width="40" height="40" fill="#a77e58" />
	
	<rect x="400" y="520" width="40" height="40" fill="#a77e58" />
	
	<rect x="440" y="520" width="40" height="40" fill="#a77e58" />
	
	<rect x="440" y="480" width="40" height="40" fill="#a77e58" />
	
	<rect x="400" y="480" width="40" height="40" fill="#a77e58" />
	
	<rect x="360" y="480" width="40" height="40" fill="#a77e58" />
	
	<rect x="360" y="440" width="40" height="40" fill="#a77e58" />
	
	<rect x="320" y="440" width="40" height="40" fill="#a77e58" />
	
	<rect x="320" y="400" width="40" height="40" fill="#a77e58" />
	
	<rect x="280" y="400" width="40" height="40" fill="#a77e58" />
	
	<rect x="240" y="400" width="40" height="40" fill="#a77e58" />
	
	<rect x="240" y="440" width="40" height="40" fill="#a77e58" />
	
	<rect x="200" y="440" width="40" height="40" fill="#a77e58" />
	
	<rect x="200" y="480" width="40" height="40" fill="#a77e58" />
	
	<rect x="200" y="520" width="40" height="40" fill="#a77e58" />
	
	<rect x="200" y="560" width="40" height="40" fill="#a77e58" />
	
	<rect x="240" y="600" width="40" height="40" fill="#a77e58" />
	
	<rect x="280" y="600" width="40" height="40" fill="#a77e58" />
	
	<rect x="240" y="560" width="40" height="40" fill="#a77e58" />
	
	<rect x="240" y="520" width="40" height="40" fill="#a77e58" />
	
	<rect x="280" y="520" width="40" height="40" fill="#a77e58" />
	
	<rect x="280" y="480" width="40" height="40" fill="#a77e58" />
	
	<rect x="240" y="480" width="40" height="40" fill="#a77e58" />
	
	<rect x="480" y="480" width="40" height="40" fill="#a77e58" />
	
	<rect x="520" y="440" width="40" height="40" fill="#a77e58" />
	
	<rect x="560" y="440" width="40" height="40" fill="#a77e58" />
	
	<rect x="600" y="440" width="40" height="40" fill="#a77e58" />
	
	<rect x="600" y="400" width="40" height="40" fill="#a77e58" />
	
	<rect x="560" y="400" width="40" height="40" fill="#a77e58" />
	
	<rect x="520" y="400" width="40" height="40" fill="#a77e58" />
	
	<rect x="480" y="400" width="40" height="40" fill="#a77e58" />
	
	<rect x="480" y="440" width="40" height="40" fill="#a77e58" />
	
	<rect x="440" y="440" width="40" height="40" fill="#a77e58" />
	
	<rect x="400" y="440" width="40" height="40" fill="#a77e58" />
	
	<rect x="400" y="400" width="40" height="40" fill="#a77e58" />
	
	<rect x="360" y="400" width="40" height="40" fill="#a77e58" />
	
	<rect x="360" y="360" width="40" height="40" fill="#a77e58" />
	
	<rect x="400" y="360" width="40" height="40" fill="#a77e58" />
	
	<rect x="440" y="400" width="40" height="40" fill="#a77e58" />
	
	<rect x="440" y="360" width="40" height="40" fill="#a77e58" />
	
	<rect x="480" y="360" width="40" height="40" fill="#a77e58" />
	
	<rect x="520" y="360" width="40" height="40" fill="#a77e58" />
	
	<rect x="560" y="360" width="40" height="40" fill="#a77e58" />
	
	<rect x="520" y="320" width="40" height="40" fill="#a77e58" />
	
	<rect x="520" y="280" width="40" height="40" fill="#a77e58" />
	
	<rect x="480" y="280" width="40" height="40" fill="#a77e58" />
	
	<rect x="440" y="280" width="40" height="40" fill="#a77e58" />
	
	<rect x="400" y="280" width="40" height="40" fill="#a77e58" />
	
	<rect x="400" y="320" width="40" height="40" fill="#a77e58" />
	
	<rect x="360" y="240" width="40" height="40" fill="#a77e58" />
	
	<rect x="320" y="240" width="40" height="40" fill="#a77e58" />
	
	<rect x="280" y="680" width="40" height="40" fill="#68c069" />
	
	<rect x="200" y="680" width="40" height="40" fill="#68c069" />
	
	<rect x="240" y="680" width="40" height="40" fill="#68c069" />
	
	<rect x="320" y="680" width="40" height="40" fill="#68c069" />
	
	<rect x="360" y="680" width="40" height="40" fill="#68c069" />
	
	<rect x="160" y="600" width="40" height="40" fill="#68c069" />
	
	<rect x="160" y="640" width="40" height="40" fill="#68c069" />
	
	<rect x="160" y="680" width="40" height="40" fill="#68c069" />
	
	<rect x="400" y="680" width="40" height="40" fill="#68c069" />
	
	<rect x="440" y="680" width="40" height="40" fill="#68c069" />
	
	<rect x="480" y="680" width="40" height="40" fill="#68c069" />
	
	<rect x="520" y="680" width="40" height="40" fill="#68c069" />
	
	<rect x="520" y="600" width="40" height="40" fill="#68c069" />
	
	<rect x="520" y="640" width="40" height="40" fill="#68c069" />
	
	<rect x="480" y="640" width="40" height="40" fill="#68c069" />
	
	<rect x="440" y="640" width="40" height="40" fill="#68c069" />
	
	<rect x="400" y="640" width="40" height="40" fill="#68c069" />
	
	<rect x="360" y="640" width="40" height="40" fill="#68c069" />
	
	<rect x="320" y="640" width="40" height="40" fill="#68c069" />
	
	<rect x="280" y="640" width="40" height="40" fill="#68c069" />
	
	<rect x="240" y="640" width="40" height="40" fill="#68c069" />
	
	<rect x="200" y="640" width="40" height="40" fill="#68c069" />
	
	<rect x="560" y="640" width="40" height="40" fill="#68c069" />
	
	<rect x="80" y="640" width="40" height="40" fill="#68c069" />
	
	<rect x="120" y="600" width="40" height="40" fill="#68c069" />
	
	<rect x="120" y="640" width="40" height="40" fill="#68c069" />
	
	<rect x="120" y="680" width="40" height="40" fill="#68c069" />
	
	<rect x="560" y="600" width="40" height="40" fill="#68c069" />
	
	<rect x="600" y="640" width="40" height="40" fill="#68c069" />
	
	<rect x="600" y="680" width="40" height="40" fill="#68c069" />
	
	<rect x="560" y="680" width="40" height="40" fill="#68c069" />
	
	<rect x="560" y="720" width="40" height="40" fill="#68c069" />
	
	<rect x="520" y="720" width="40" height="40" fill="#68c069" />
	
	<rect x="480" y="720" width="40" height="40" fill="#68c069" />
	
	<rect x="440" y="720" width="40" height="40" fill="#68c069" />
	
	<rect x="400" y="720" width="40" height="40" fill="#68c069" />
	
	<rect x="360" y="720" width="40" height="40" fill="#68c069" />
	
	<rect x="320" y="720" width="40" height="40" fill="#68c069" />
	
	<rect x="280" y="720" width="40" height="40" fill="#68c069" />
	
	<rect x="240" y="720" width="40" height="40" fill="#68c069" />
	
	<rect x="200" y="720" width="40" height="40" fill="#68c069" />
	
	<rect x="160" y="720" width="40" height="40" fill="#68c069" />
	
	<rect x="80" y="680" width="40" height="40" fill="#68c069" />
	
	<rect x="120" y="720" width="40" height="40" fill="#68c069" />
	
</svg>
